<svg width="250" height="39" viewBox="0 0 250 39" fill="none" xmlns="http://www.w3.org/2000/svg">
<path d="M37.6669 5.50743V38H29.752V18.5137L22.4851 38H16.0977L8.78457 18.4674V38H0.869715V5.50743H10.2194L19.3377 28.0023L28.3634 5.50743H37.6669ZM47.3391 9.488C45.9506 9.488 44.8088 9.08685 43.914 8.28457C43.05 7.45143 42.618 6.43314 42.618 5.22971C42.618 3.99543 43.05 2.97714 43.914 2.17485C44.8088 1.34171 45.9506 0.925138 47.3391 0.925138C48.6968 0.925138 49.8077 1.34171 50.6717 2.17485C51.5666 2.97714 52.014 3.99543 52.014 5.22971C52.014 6.43314 51.5666 7.45143 50.6717 8.28457C49.8077 9.08685 48.6968 9.488 47.3391 9.488ZM51.2734 12.1726V38H43.3586V12.1726H51.2734ZM72.7464 11.8949C75.7704 11.8949 78.1772 12.8823 79.9669 14.8571C81.7875 16.8011 82.6978 19.4857 82.6978 22.9109V38H74.8292V23.9754C74.8292 22.2474 74.3818 20.9051 73.4869 19.9486C72.5921 18.992 71.3887 18.5137 69.8767 18.5137C68.3647 18.5137 67.1612 18.992 66.2664 19.9486C65.3715 20.9051 64.9241 22.2474 64.9241 23.9754V38H57.0092V12.1726H64.9241V15.5977C65.7264 14.456 66.8064 13.5611 68.1641 12.9131C69.5218 12.2343 71.0492 11.8949 72.7464 11.8949ZM92.1784 9.488C90.7898 9.488 89.6481 9.08685 88.7533 8.28457C87.8893 7.45143 87.4573 6.43314 87.4573 5.22971C87.4573 3.99543 87.8893 2.97714 88.7533 2.17485C89.6481 1.34171 90.7898 0.925138 92.1784 0.925138C93.5361 0.925138 94.647 1.34171 95.511 2.17485C96.4058 2.97714 96.8533 3.99543 96.8533 5.22971C96.8533 6.43314 96.4058 7.45143 95.511 8.28457C94.647 9.08685 93.5361 9.488 92.1784 9.488ZM96.1127 12.1726V38H88.1978V12.1726H96.1127ZM134.804 11.8949C138.013 11.8949 140.559 12.8669 142.441 14.8109C144.354 16.7549 145.311 19.4549 145.311 22.9109V38H137.442V23.9754C137.442 22.3091 136.995 21.0286 136.1 20.1337C135.236 19.208 134.033 18.7451 132.49 18.7451C130.947 18.7451 129.728 19.208 128.833 20.1337C127.969 21.0286 127.537 22.3091 127.537 23.9754V38H119.669V23.9754C119.669 22.3091 119.221 21.0286 118.326 20.1337C117.462 19.208 116.259 18.7451 114.716 18.7451C113.173 18.7451 111.954 19.208 111.059 20.1337C110.195 21.0286 109.763 22.3091 109.763 23.9754V38H101.849V12.1726H109.763V15.4126C110.566 14.3326 111.615 13.484 112.911 12.8669C114.207 12.2189 115.673 11.8949 117.308 11.8949C119.252 11.8949 120.98 12.3114 122.492 13.1446C124.035 13.9777 125.238 15.1657 126.102 16.7086C126.997 15.2891 128.216 14.132 129.759 13.2371C131.302 12.3423 132.983 11.8949 134.804 11.8949ZM149.273 25.04C149.273 22.3863 149.766 20.0566 150.754 18.0509C151.772 16.0451 153.145 14.5023 154.873 13.4223C156.601 12.3423 158.53 11.8023 160.659 11.8023C162.479 11.8023 164.069 12.1726 165.426 12.9131C166.815 13.6537 167.879 14.6257 168.62 15.8291V12.1726H176.535V38H168.62V34.3434C167.849 35.5469 166.769 36.5189 165.38 37.2594C164.022 38 162.433 38.3703 160.613 38.3703C158.514 38.3703 156.601 37.8303 154.873 36.7503C153.145 35.6394 151.772 34.0811 150.754 32.0754C149.766 30.0389 149.273 27.6937 149.273 25.04ZM168.62 25.0863C168.62 23.1114 168.065 21.5531 166.954 20.4114C165.874 19.2697 164.547 18.6989 162.973 18.6989C161.399 18.6989 160.057 19.2697 158.946 20.4114C157.866 21.5223 157.326 23.0651 157.326 25.04C157.326 27.0149 157.866 28.5886 158.946 29.7611C160.057 30.9029 161.399 31.4737 162.973 31.4737C164.547 31.4737 165.874 30.9029 166.954 29.7611C168.065 28.6194 168.62 27.0611 168.62 25.0863ZM190.176 3.74857V38H182.261V3.74857H190.176ZM199.892 9.488C198.504 9.488 197.362 9.08685 196.467 8.28457C195.603 7.45143 195.171 6.43314 195.171 5.22971C195.171 3.99543 195.603 2.97714 196.467 2.17485C197.362 1.34171 198.504 0.925138 199.892 0.925138C201.25 0.925138 202.361 1.34171 203.225 2.17485C204.12 2.97714 204.567 3.99543 204.567 5.22971C204.567 6.43314 204.12 7.45143 203.225 8.28457C202.361 9.08685 201.25 9.488 199.892 9.488ZM203.826 12.1726V38H195.912V12.1726H203.826ZM220.069 38.3703C217.817 38.3703 215.811 37.9846 214.052 37.2131C212.293 36.4417 210.905 35.3926 209.886 34.0657C208.868 32.708 208.297 31.196 208.174 29.5297H215.996C216.089 30.4246 216.505 31.1497 217.246 31.7051C217.986 32.2606 218.897 32.5383 219.977 32.5383C220.964 32.5383 221.72 32.3531 222.245 31.9829C222.8 31.5817 223.078 31.0726 223.078 30.4554C223.078 29.7149 222.692 29.1749 221.921 28.8354C221.149 28.4651 219.899 28.064 218.171 27.632C216.32 27.2 214.777 26.7526 213.543 26.2897C212.309 25.796 211.244 25.04 210.349 24.0217C209.454 22.9726 209.007 21.5686 209.007 19.8097C209.007 18.3286 209.408 16.9863 210.21 15.7829C211.043 14.5486 212.247 13.5766 213.821 12.8669C215.425 12.1571 217.323 11.8023 219.514 11.8023C222.754 11.8023 225.299 12.6046 227.151 14.2091C229.033 15.8137 230.113 17.9429 230.391 20.5966H223.078C222.954 19.7017 222.553 18.992 221.874 18.4674C221.226 17.9429 220.362 17.6806 219.282 17.6806C218.357 17.6806 217.647 17.8657 217.153 18.236C216.659 18.5754 216.413 19.0537 216.413 19.6709C216.413 20.4114 216.798 20.9669 217.57 21.3371C218.372 21.7074 219.606 22.0777 221.273 22.448C223.186 22.9417 224.744 23.4354 225.947 23.9291C227.151 24.392 228.2 25.1634 229.095 26.2434C230.021 27.2926 230.499 28.712 230.53 30.5017C230.53 32.0137 230.098 33.3714 229.234 34.5749C228.401 35.7474 227.182 36.6731 225.577 37.352C224.003 38.0309 222.167 38.3703 220.069 38.3703ZM249.767 31.2886V38H245.74C242.87 38 240.633 37.3057 239.029 35.9171C237.424 34.4977 236.622 32.1989 236.622 29.0206V18.7451H233.474V12.1726H236.622V5.87771H244.537V12.1726H249.721V18.7451H244.537V29.1131C244.537 29.8846 244.722 30.44 245.092 30.7794C245.462 31.1189 246.079 31.2886 246.943 31.2886H249.767Z" fill="black"/>
</svg>
